PathFileType	4	(X/Y/Z)	output.trc
DataRate	CameraRate	NumFrames	NumMarkers	Units	OrigDataRate	OrigDataStartFrame	OrigNumFrames
50	50	17	18	mm	50	57	1
Frame#	Time	K4ABT_JOINT_PELVIS			K4ABT_JOINT_SPINE_NAVEL			K4ABT_JOINT_SPINE_CHEST			K4ABT_JOINT_NECK			K4ABT_JOINT_CLAVICLE_LEFT			K4ABT_JOINT_SHOULDER_LEFT			K4ABT_JOINT_ELBOW_LEFT			K4ABT_JOINT_WRIST_LEFT			K4ABT_JOINT_HAND_LEFT			K4ABT_JOINT_HANDTIP_LEFT			K4ABT_JOINT_THUMB_LEFT			K4ABT_JOINT_CLAVICLE_RIGHT			K4ABT_JOINT_SHOULDER_RIGHT			K4ABT_JOINT_ELBOW_RIGHT			K4ABT_JOINT_WRIST_RIGHT			K4ABT_JOINT_HAND_RIGHT			K4ABT_JOINT_HANDTIP_RIGHT			K4ABT_JOINT_THUMB_RIGHT		
		X1	Y1	Z1	X2	Y2	Z2	X3	Y3	Z3	X4	Y4	Z4	X5	Y5	Z5	X6	Y6	Z6	X7	Y7	Z7	X8	Y8	Z8	X9	Y9	Z9	X10	Y10	Z10	X11	Y11	Z11	X12	Y12	Z12	X13	Y13	Z13	X14	Y14	Z14	X15	Y15	Z15	X16	Y16	Z16	X17	Y17	Z17	X18	Y18	Z18
56	2166888.000000	-62.668549	-165.549118	1951.733154	-50.545452	-347.177094	1934.000732	-40.814320	-492.355713	1919.606079	-4.625935	-711.945923	1917.051758	17.723244	-671.529602	1936.848022	128.966080	-633.777710	2024.462646	133.304062	-395.592957	2177.775146	261.924774	-449.673767	1985.247070	204.944168	-412.113983	1913.922607	293.524384	-453.807953	1862.098511	228.106705	-478.909515	1864.355957	-39.971397	-679.988647	1899.978882	-140.577545	-662.561951	1811.940063	-289.674469	-507.968903	1619.087646	-179.219894	-652.399475	1461.242554	-213.519363	-647.106079	1360.779541	-129.325378	-715.015991	1348.332642	-147.149658	-673.736084	1340.623169
57	2200211.000000	-61.668324	-175.050980	1945.571655	-54.798908	-358.591248	1935.056274	-47.976017	-504.395142	1917.010376	-13.929549	-725.653625	1914.563477	8.542087	-685.305237	1935.098267	121.473503	-644.006592	2020.367432	136.408173	-387.498596	2143.586914	275.286377	-479.656158	1972.058472	227.042221	-450.979828	1890.144653	294.056335	-520.140869	1834.098267	223.827133	-525.443787	1863.097656	-48.739685	-693.072144	1896.703125	-140.841339	-670.567871	1799.742188	-279.782898	-533.968262	1584.475220	-167.994415	-638.017883	1396.494995	-153.802261	-650.955872	1291.319946	-85.009460	-647.591248	1206.164673	-109.670776	-661.052002	1277.395142
58	2233555.000000	-62.453983	-182.062454	1940.585205	-58.213989	-365.341858	1933.431763	-53.613686	-510.880127	1915.806641	-23.709040	-732.009644	1908.391968	-0.498081	-692.646973	1929.665649	115.783295	-657.264465	2012.359619	167.907410	-420.869232	2161.224121	276.109772	-494.604126	1961.859985	250.968781	-509.761169	1867.286255	298.985168	-596.559021	1817.203247	255.467117	-568.755981	1847.651733	-57.883816	-698.505737	1891.428955	-147.722427	-675.309387	1793.034912	-263.304810	-574.086243	1547.597412	-128.925293	-669.590271	1371.071899	-120.280884	-655.279846	1265.768555	-49.195492	-641.438477	1184.005737	-73.897263	-661.725647	1250.099243
59	2266877.000000	-59.375362	-189.039993	1934.454834	-55.444736	-373.743195	1927.322632	-51.806156	-520.257568	1908.177734	-34.538052	-744.569458	1910.462280	-8.650358	-705.402405	1929.848755	113.816833	-675.373413	2007.606079	201.919769	-449.237213	2159.628418	305.697906	-531.878784	1959.199219	279.851135	-571.128967	1871.169800	260.880280	-639.150208	1784.266846	259.772675	-599.377930	1850.874146	-67.208199	-709.673279	1892.214111	-148.468079	-690.363220	1784.522217	-248.408173	-602.875183	1524.713013	-104.429321	-693.356567	1350.567993	-66.635292	-669.811462	1252.784668	-1.192235	-635.657654	1171.143433	-23.281872	-649.078613	1261.227539
60	2300222.000000	-51.417534	-193.178848	1926.423706	-49.872036	-378.620911	1920.570435	-48.743568	-525.865967	1902.691040	-39.931698	-751.423218	1907.843384	-11.622676	-712.879333	1925.490845	113.994385	-688.610168	2001.214233	237.358215	-476.101166	2150.267090	315.759735	-580.077026	1947.226074	280.647308	-616.374207	1860.748047	243.550980	-672.609192	1770.804688	257.815521	-612.622559	1831.847900	-72.147697	-715.423096	1890.439819	-157.081482	-694.670532	1785.265625	-264.647156	-604.665771	1528.207031	-94.023842	-718.066345	1395.188843	-93.572639	-688.603210	1291.466064	11.630088	-689.666138	1257.817505	-12.863472	-671.074219	1312.687134
61	2333544.000000	-40.920265	-199.824005	1916.073242	-41.376987	-386.236359	1912.927856	-42.395893	-534.195190	1894.960205	-45.152676	-760.882263	1903.942017	-14.167911	-723.412537	1920.056274	114.176239	-706.057312	1994.513306	271.549103	-510.005463	2136.622314	328.548584	-611.082092	1923.824341	286.142242	-653.295532	1842.917480	230.836395	-687.058228	1750.438721	237.773453	-669.577026	1858.689575	-76.159843	-723.350159	1886.846436	-164.141174	-700.129517	1783.852295	-259.302124	-601.659912	1523.408325	-74.952316	-736.505615	1433.536133	-81.694893	-711.382507	1328.355713	5.906731	-692.287476	1262.927979	-11.578817	-684.264221	1337.692993
62	2366888.000000	-34.121777	-201.474335	1906.789795	-38.450478	-388.971924	1903.932739	-42.506626	-537.865967	1886.616089	-56.630672	-765.080872	1903.200073	-23.621574	-728.464355	1918.207886	110.663551	-712.248108	1983.729858	290.572754	-530.047302	2121.014160	327.364685	-638.544678	1905.753052	272.922638	-684.574036	1833.873413	205.235687	-707.071350	1745.452026	228.687408	-691.078674	1839.374146	-85.905869	-726.407654	1884.704834	-173.270645	-708.045105	1779.122925	-259.943359	-597.178284	1518.677368	-55.086182	-722.961304	1462.198975	-54.615593	-714.916809	1353.491333	50.884171	-716.026428	1316.915527	1.299120	-681.450073	1364.147461
63	2400222.000000	-30.983644	-196.788223	1896.985718	-36.725410	-383.181152	1891.540283	-41.831402	-531.767456	1879.679688	-53.922123	-758.272034	1889.261963	-20.864870	-722.112915	1904.323608	113.313362	-711.938416	1969.431396	327.317688	-562.506958	2093.441650	302.965149	-669.327393	1877.059326	253.279053	-701.614563	1795.645386	187.704071	-711.160156	1704.122803	205.225586	-726.067871	1825.439209	-83.850395	-719.448120	1873.049561	-178.205322	-701.643494	1774.599487	-262.941162	-591.473389	1515.026611	-45.329720	-699.125854	1477.878906	3.161263	-695.720703	1380.967041	52.945000	-685.367004	1282.225586	16.091663	-687.050903	1378.495483
64	2433555.000000	-19.774536	-183.234985	1882.832764	-24.600952	-367.959503	1873.713013	-28.210001	-515.745056	1868.882812	-43.039261	-740.053894	1881.371704	-9.263372	-704.511475	1894.773926	124.231064	-699.422180	1959.041382	361.410278	-579.952820	2066.739502	292.517426	-697.135254	1868.309082	246.318619	-712.061890	1781.047119	218.738861	-702.766907	1672.836792	178.840622	-698.123352	1807.448608	-72.703415	-701.305481	1865.867920	-177.993530	-681.102844	1781.573730	-250.543777	-567.905396	1522.372192	-32.321007	-676.048706	1519.144287	27.916819	-664.102844	1430.887451	80.035446	-622.179077	1343.379639	31.544298	-663.469910	1416.165771
65	2466888.000000	-11.200646	-180.643860	1876.649292	-16.217442	-364.859650	1862.793457	-19.134386	-512.571228	1863.494751	-28.228495	-736.641602	1880.409058	4.839323	-700.080933	1892.563232	143.993301	-698.195190	1943.161011	390.018402	-590.038208	2041.724487	306.471985	-737.453979	1871.398193	238.087769	-759.969482	1802.361816	181.846481	-758.431335	1705.600098	196.566071	-784.983643	1918.105957	-59.049778	-698.970825	1864.697998	-171.303833	-685.114868	1788.771362	-277.499847	-539.582703	1559.394775	-58.480053	-645.173096	1568.003174	10.849364	-638.426086	1486.256836	83.951805	-621.425415	1405.812500	2.283011	-627.620178	1464.108765
66	2500222.000000	1.929628	-179.699310	1861.354858	-3.495856	-366.210327	1854.765381	-6.441837	-515.317078	1860.915405	-19.557287	-739.648865	1894.470703	16.577084	-703.459412	1898.452271	161.886688	-704.392944	1934.025269	438.100342	-623.849243	1963.267944	301.819702	-739.064026	1798.738770	231.995529	-760.253357	1729.234741	122.099030	-734.754517	1721.484985	211.380188	-786.700745	1889.942139	-51.756771	-701.361938	1881.536377	-182.131790	-685.567993	1840.369751	-304.572876	-489.629608	1657.483887	-88.910027	-585.085449	1588.234253	-48.606739	-573.934998	1488.111816	6.740410	-580.484619	1391.942627	8.851141	-621.895081	1526.152588
67	2533533.000000	13.863950	-179.002014	1852.811279	10.752498	-365.317657	1848.678833	9.457145	-514.139282	1856.007446	-0.470622	-737.700500	1892.998901	36.081905	-701.870422	1891.464111	184.652710	-700.800781	1906.642822	464.198944	-628.737915	1910.084717	326.184631	-751.150574	1752.976929	255.493134	-756.461792	1681.597290	159.553406	-725.021240	1631.090698	213.731857	-810.559570	1815.071045	-33.829540	-699.289795	1884.473755	-169.940567	-680.622742	1882.897949	-299.517273	-455.202576	1745.311035	-89.150551	-503.904053	1628.753662	-27.250074	-523.570007	1542.066772	15.343558	-523.994995	1439.606201	4.367806	-597.868347	1677.542725
68	2566888.000000	28.981098	-174.768341	1848.802979	29.570400	-360.217682	1842.042114	30.985378	-508.463074	1847.618530	18.479534	-731.515076	1880.628784	55.534412	-697.030396	1874.534668	204.023636	-702.884705	1879.742432	483.431244	-644.108459	1846.555664	342.799927	-758.519592	1687.380005	259.103668	-757.162659	1632.375854	176.562637	-760.384827	1556.156494	220.977493	-816.992004	1749.701538	-14.199515	-691.984314	1877.965820	-146.836029	-664.772339	1897.452026	-291.764252	-413.754120	1855.426514	-122.387825	-425.220734	1679.736328	-40.089153	-460.459930	1619.603882	29.332764	-479.427795	1535.782104	-22.387161	-469.088074	1620.833984
69	2600211.000000	36.514721	-174.207733	1852.780396	39.695179	-360.864471	1841.360596	42.931870	-510.352844	1841.114258	28.921230	-734.152893	1880.110596	66.214706	-700.376770	1869.679810	215.484299	-707.163025	1858.186646	488.836487	-665.689270	1771.654907	334.627350	-796.603699	1636.732910	261.539764	-774.772644	1570.609131	185.867615	-753.692261	1488.990601	218.540817	-823.498901	1711.547607	-3.282276	-693.629272	1879.782593	-131.920853	-654.827759	1910.680176	-236.104965	-381.200714	1948.213867	-149.644714	-393.010895	1717.965088	-87.141899	-416.679443	1632.246826	4.652150	-449.958069	1578.727051	-49.654232	-457.842560	1644.393433
70	2633555.000000	47.966763	-164.882095	1856.587036	55.048122	-351.742889	1843.050049	61.067581	-501.395477	1837.282227	45.670059	-725.877197	1875.027710	83.039581	-692.410339	1863.336792	230.107285	-702.383118	1834.358276	485.918365	-684.720215	1698.036621	316.243408	-804.341675	1570.326416	258.553192	-778.395935	1491.341064	185.757935	-724.871765	1422.564087	202.997391	-833.245056	1637.474365	13.941005	-684.843384	1876.360474	-111.182976	-637.830627	1911.485596	-191.505051	-379.776428	2031.953369	-165.965942	-266.571503	1814.112183	-128.637909	-271.340698	1711.860474	-88.108124	-270.137970	1607.871094	-70.882706	-309.084686	1738.981812
71	2666888.000000	51.054756	-163.453445	1853.658325	58.470406	-350.681854	1841.601440	64.795471	-500.585327	1837.009521	57.156204	-725.781433	1874.916260	92.642403	-691.550232	1859.749268	235.033600	-701.640686	1812.229492	473.202454	-695.841431	1645.413696	300.408844	-800.588989	1508.462402	242.046356	-769.795349	1431.546631	172.652664	-716.112976	1359.191162	185.570160	-801.999939	1583.685913	24.948706	-685.273193	1879.611572	-96.900909	-644.320374	1930.917480	-154.672165	-390.343536	2072.249023	-177.785797	-249.149078	1870.671997	-157.937576	-242.874802	1763.557617	-148.777206	-201.542496	1660.104004	-102.410324	-251.326202	1795.122192
72	2700222.000000	55.865395	-163.299255	1847.339722	62.725544	-351.095795	1837.620850	69.162987	-501.382812	1839.378296	68.886696	-727.985962	1872.361938	102.399979	-692.628235	1855.058472	242.357895	-702.350403	1799.818237	469.476898	-718.615051	1617.862183	301.247437	-790.841125	1455.602417	232.395203	-763.392334	1386.166748	152.654068	-697.329285	1338.562134	199.720749	-799.724609	1545.216797	36.386444	-688.170288	1880.761230	-83.750862	-652.659790	1940.314575	-120.448082	-394.271851	2082.051758	-194.300659	-236.674652	1905.757568	-153.105347	-220.078369	1805.825562	-109.111389	-172.967941	1714.202759	-113.107224	-250.755493	1834.809814
